<?xml version="1.0" encoding="utf-8"?>
<!-- Generator: Adobe Illustrator 16.0.0, SVG Export Plug-In . SVG Version: 6.00 Build 0)  -->
<!DOCTYPE svg PUBLIC "-//W3C//DTD SVG 1.1//EN" "http://www.w3.org/Graphics/SVG/1.1/DTD/svg11.dtd">
<svg version="1.1"
	 id="svg3095" xmlns:dc="http://purl.org/dc/elements/1.1/" xmlns:svg="http://www.w3.org/2000/svg" xmlns:rdf="http://www.w3.org/1999/02/22-rdf-syntax-ns#" xmlns:cc="http://creativecommons.org/ns#"
	 xmlns="http://www.w3.org/2000/svg" xmlns:xlink="http://www.w3.org/1999/xlink" x="0px" y="0px" width="125px" height="425px"
	 viewBox="0 0 125 425" enable-background="new 0 0 125 425" xml:space="preserve">
<circle fill="#EAEAEA" cx="78.5" cy="336.5" r="6.5"/>
<path id="github" fill="#999999" d="M6,113.6c-3.3,0-6,2.8-6,6.2c0,2.7,1.7,5,4.1,5.8c0.3,0.1,0.4-0.1,0.4-0.3c0-0.1,0-0.5,0-1
	c-1.7,0.4-2-0.8-2-0.8c-0.3-0.7-0.7-0.9-0.7-0.9c-0.5-0.4,0-0.4,0-0.4c0.6,0,0.9,0.6,0.9,0.6c0.5,0.9,1.4,0.7,1.7,0.5
	c0.1-0.4,0.2-0.7,0.4-0.8c-1.3-0.2-2.7-0.7-2.7-3c0-0.7,0.2-1.2,0.6-1.7c-0.1-0.2-0.3-0.8,0.1-1.6c0,0,0.5-0.2,1.6,0.6
	c0.5-0.1,1-0.2,1.5-0.2s1,0.1,1.5,0.2c1.1-0.8,1.6-0.6,1.6-0.6c0.3,0.8,0.1,1.5,0.1,1.6c0.4,0.4,0.6,1,0.6,1.7c0,2.4-1.4,2.9-2.7,3
	c0.2,0.2,0.4,0.6,0.4,1.1c0,0.8,0,1.5,0,1.7c0,0.2,0.1,0.4,0.4,0.3c2.4-0.8,4.1-3.1,4.1-5.8C12,116.3,9.3,113.6,6,113.6z"/>
<path id="github_1_" fill="#EDF5FC" d="M83.271,130.748c-3.918,0-7.123,3.324-7.123,7.361c0,3.206,2.019,5.936,4.867,6.886
	c0.354,0.119,0.476-0.119,0.476-0.356c0-0.119,0-0.594,0-1.188c-2.019,0.475-2.375-0.949-2.375-0.949
	c-0.354-0.832-0.831-1.069-0.831-1.069c-0.594-0.475,0-0.475,0-0.475c0.714,0,1.068,0.712,1.068,0.712
	c0.595,1.069,1.662,0.832,2.02,0.594c0.118-0.475,0.234-0.831,0.475-0.95c-1.543-0.238-3.207-0.831-3.207-3.562
	c0-0.831,0.238-1.424,0.715-2.018c-0.121-0.237-0.354-0.95,0.117-1.899c0,0,0.594-0.238,1.9,0.712
	c0.594-0.118,1.188-0.237,1.781-0.237c0.593,0,1.187,0.119,1.779,0.237c1.307-0.95,1.896-0.712,1.896-0.712
	c0.354,0.949,0.118,1.781,0.118,1.899c0.476,0.475,0.714,1.187,0.714,2.018c0,2.85-1.663,3.443-3.206,3.562
	c0.234,0.237,0.479,0.712,0.479,1.306c0,0.95,0,1.782,0,2.019c0,0.238,0.115,0.475,0.479,0.356c2.853-0.95,4.864-3.681,4.864-6.886
	C90.396,133.954,87.189,130.748,83.271,130.748z"/>
<path id="location" fill="#999999" d="M8.6,101.2c0-2.4-1.9-4.4-4.3-4.4c-2.4,0-4.3,2-4.3,4.4c0,0.8,0.2,1.5,0.6,2.2l0,0l0,0
	l2.8,4.7c0.5,0.9,1.4,0.9,1.9,0l2.7-4.7l0,0l0,0C8.4,102.7,8.6,102,8.6,101.2z M4.3,102.5c-0.9,0-1.6-0.7-1.6-1.7
	c0-0.9,0.7-1.7,1.6-1.7c0.9,0,1.6,0.7,1.6,1.7C5.9,101.7,5.2,102.5,4.3,102.5z"/>
<path id="twitter" fill="#999999" d="M12,132.7L12,132.7L12,132.7 M8.3,131.5c-1.4,0-2.5,1.1-2.5,2.5c0,0.2,0,0.4,0.1,0.6
	c-2-0.1-3.9-1.1-5.1-2.6c-0.2,0.4-0.3,0.8-0.3,1.2c0,0.9,0.4,1.6,1.1,2.1c-0.4,0-0.8-0.1-1.1-0.3l0,0c0,1.2,0.8,2.2,2,2.4
	c-0.2,0.1-0.4,0.1-0.6,0.1c-0.2,0-0.3,0-0.5,0c0.3,1,1.2,1.7,2.3,1.7c-0.8,0.7-1.9,1.1-3.1,1.1c-0.2,0-0.4,0-0.6,0
	c1.1,0.7,2.4,1.1,3.8,1.1c4.5,0,7-3.8,7-7c0-0.1,0-0.2,0-0.3c0.5-0.3,0.9-0.8,1.2-1.3c-0.4,0.2-0.9,0.3-1.4,0.4
	c0.5-0.3,0.9-0.8,1.1-1.4c-0.5,0.3-1,0.5-1.6,0.6C9.7,131.8,9,131.5,8.3,131.5"/>
<path id="twitter_1_" fill="#FBFBFB" d="M70.299,131.568L70.299,131.568L70.299,131.568 M65.458,129.998
	c-1.831,0-3.271,1.439-3.271,3.271c0,0.262,0,0.523,0.131,0.785c-2.617-0.131-5.102-1.439-6.672-3.401
	c-0.261,0.523-0.392,1.046-0.392,1.57c0,1.177,0.523,2.093,1.439,2.747c-0.523,0-1.047-0.13-1.439-0.392l0,0
	c0,1.57,1.046,2.878,2.616,3.14c-0.262,0.131-0.523,0.131-0.785,0.131c-0.261,0-0.392,0-0.654,0c0.393,1.308,1.57,2.224,3.009,2.224
	c-1.047,0.916-2.486,1.438-4.056,1.438c-0.262,0-0.523,0-0.785,0c1.439,0.916,3.14,1.439,4.971,1.439
	c5.887,0,9.159-4.971,9.159-9.158c0-0.131,0-0.261,0-0.393c0.653-0.393,1.187-1.047,1.568-1.701
	c-0.521,0.262-1.177,0.393-1.831,0.524c0.654-0.393,1.177-1.047,1.44-1.832c-0.654,0.393-1.309,0.654-2.096,0.785
	C67.291,130.39,66.374,129.998,65.458,129.998"/>
<path id="link" fill="#999999" d="M2,90c-0.6-0.6-0.6-1.5-0.1-2.1l2.5-2.5C4,85,2.6,85,1.8,85.8l-1,1C-0.3,88.1-0.3,89.7,1,91
	s3,1.3,4.2,0.1l1-1C6.9,89.4,7,88,6.6,87.6l-2.5,2.5C3.6,90.6,2.5,90.5,2,90z M6.9,80.9l-1,1C5.1,82.7,5,84,5.5,84.4L7.9,82
	c0.5-0.5,1.5-0.5,2.1,0.1c0.5,0.5,0.6,1.6,0,2.1l-2.5,2.5C8,87,9.3,87,10.1,86.2l1-1c1.2-1.2,1.1-2.9-0.1-4.2
	C9.7,79.7,8,79.7,6.9,80.9z M3.5,88.5c0.3,0.3,0.8,0.3,1,0l4-4c0.3-0.3,0.3-0.7,0-1s-0.8-0.3-1,0l-4,4C3.2,87.8,3.2,88.2,3.5,88.5z"
	/>
<g id="question" transform="matrix(0.44024076,0,0,0.44024076,-145.41641,-216.03873)">
	<path id="bubble" fill="#888888" d="M350.399,490.697c11.098,0,20.195,8.995,20.195,20.197c0,11.098-8.998,20.195-20.195,20.195
		c-2.105,0-4.005-0.397-5.899-0.996l-3,7.897l-1.1,2.795L339.4,538c-4.9-13.1-9.1-19.2-9.1-27
		C330.2,499.8,339.299,490.697,350.399,490.697z M350.399,492.9c-9.9,0-18.001,8-18.001,18c0,6.498,3.496,12.6,7.999,23.6l2.297-6.2
		l0.396-1l0.996,0.303c1.901,0.701,4.097,1.098,6.2,1.098c9.9,0,18.001-7.999,18.001-18.001C368.298,501,360.2,492.9,350.399,492.9z
		"/>
	<path id="letter" fill="#888888" d="M355.9,517.1c1,0.7,2,1.2,2.9,1.598l-0.7,1.597c-1.2-0.397-2.4-1.098-3.7-2.105
		c-1.2,0.703-2.701,0.998-4.1,0.998c-1.598,0-2.899-0.295-4.099-1.098C345,517.3,344,516.3,343.3,515c-0.7-1.302-1-2.806-1-4.401
		c0-1.699,0.304-3.201,1-4.503c0.7-1.3,1.7-2.398,2.9-3.101c1.2-0.701,2.7-1.096,4.199-1.096c1.595,0,2.998,0.301,4.197,1.096
		c1.2,0.803,2.204,1.801,2.897,3.101c0.701,1.3,0.996,2.804,0.996,4.401c0,1.3-0.203,2.702-0.701,3.801
		C357.4,515.3,356.8,516.3,355.9,517.1L355.9,517.1z M350.998,514.299c1.301,0.301,2.297,0.901,3.202,1.595c1.3-1.2,2-2.999,2-5.295
		c0-1.302-0.201-2.5-0.7-3.499c-0.4-1-1.1-1.8-2.002-2.3c-0.898-0.6-1.901-0.899-2.998-0.899c-1.7,0-3,0.601-4.1,1.699
		c-1.1,1.1-1.7,2.804-1.7,5.102c0,2.205,0.6,3.902,1.7,5c1.1,1.098,2.4,1.799,4.1,1.799c0.8,0,1.596-0.101,2.195-0.397
		c-0.701-0.395-1.402-0.803-2.195-0.996L350.998,514.299z"/>
</g>
<g id="answer" transform="matrix(0.44024076,0,0,0.44024076,-145.40182,-196.00446)">
	<path id="path3339" fill="#888888" d="M350.499,508.8C339.4,508.8,330.3,517.8,330.3,529c0,11.1,8.998,20.2,20.199,20.2
		c2.101,0,4.001-0.4,5.901-1l3,7.9l1.1,2.799l0.997-2.799c4.898-13.1,9.096-19.2,9.096-27C370.6,517.897,361.7,508.8,350.499,508.8z
		 M350.499,511c9.9,0,18.001,8,18.001,18c0,6.502-3.5,12.6-8,23.6l-2.3-6.2l-0.4-0.998L356.8,545.7c-1.9,0.7-4.1,1.1-6.2,1.1
		c-9.9,0-18-8-18-18C332.6,519.097,340.599,511,350.499,511z"/>
	<path id="path3345" fill="#888888" d="M342.9,536.9l6.4-16.7h2.4l6.901,16.7h-2.501l-2-5.1h-7l-1.9,5.1H342.9z M347.8,530.1h5.7
		l-1.8-4.7c-0.6-1.4-0.895-2.5-1.2-3.396c-0.2,1.098-0.6,2.096-0.894,3.201L347.8,530.1z"/>
</g>
<g id="question_2_" transform="matrix(0.44024076,0,0,0.44024076,-145.41641,-216.03873)">
	<path id="bubble_2_" fill="#4EB075" d="M464,490.7c11.1,0,20.199,9.004,20.199,20.2c0,11.1-8.999,20.2-20.199,20.2
		c-2.103,0-4.003-0.4-5.904-1l-2.998,7.9L454,540.8L453,538c-4.9-13.1-9.1-19.2-9.1-27C443.8,499.8,452.9,490.7,464,490.7z
		 M464,492.9c-9.9,0-18,8-18,18c0,6.498,3.497,12.6,8,23.6l2.297-6.2l0.396-1l0.996,0.303c1.901,0.701,4.097,1.098,6.2,1.098
		c9.911,0,18.012-7.999,18.012-18.001C481.901,501,473.8,492.9,464,492.9z"/>
	<path id="letter_2_" fill="#4EB075" d="M469.5,517.1c0.996,0.7,2,1.2,2.896,1.598l-0.701,1.597c-1.199-0.397-2.398-1.098-3.7-2.105
		c-1.199,0.703-2.703,0.998-4.096,0.998c-1.599,0-2.899-0.295-4.099-1.098c-1.2-0.803-2.202-1.799-2.9-3.101
		c-0.7-1.3-0.998-2.805-0.998-4.401c0-1.697,0.298-3.201,0.998-4.503c0.7-1.3,1.7-2.398,2.9-3.099c1.2-0.701,2.7-1.098,4.2-1.098
		c1.597,0,2.999,0.304,4.199,1.098c1.199,0.803,2.201,1.799,2.897,3.099c0.701,1.302,0.996,2.806,0.996,4.401
		c0,1.302-0.204,2.704-0.701,3.802C471,515.3,470.4,516.3,469.5,517.1L469.5,517.1z M464.6,514.3c1.3,0.304,2.298,0.903,3.2,1.6
		c1.3-1.2,2-3,2-5.3c0-1.3-0.2-2.5-0.7-3.498c-0.4-0.996-1.1-1.799-2-2.296c-0.904-0.601-1.9-0.901-3-0.901c-1.7,0-3,0.6-4.1,1.699
		c-1.1,1.1-1.7,2.802-1.7,5.101c0,2.203,0.6,3.901,1.7,5c1.1,1.099,2.4,1.8,4.1,1.8c0.8,0,1.599-0.101,2.198-0.399
		c-0.701-0.397-1.402-0.801-2.198-0.998L464.6,514.3z"/>
</g>
<g id="answer_2_" transform="matrix(0.44024076,0,0,0.44024076,-145.40182,-196.00446)">
	<path id="path3339_2_" fill="#4EB075" d="M464.1,508.801c-11.1,0-20.2,8.999-20.2,20.199c0,11.1,9.002,20.2,20.203,20.2
		c2.103,0,3.997-0.4,5.897-1l3,7.9l1.1,2.799l0.998-2.799c4.902-13.1,9.099-19.2,9.099-27C484.2,517.9,475.3,508.801,464.1,508.801z
		 M464.1,511c9.9,0,17.999,8,17.999,18c0,6.502-3.5,12.6-7.999,23.6l-2.3-6.2l-0.399-0.998l-0.996,0.297
		c-1.901,0.7-4.097,1.1-6.2,1.1c-9.9,0-18.001-8-18.001-18C446.2,519.1,454.2,511,464.1,511z"/>
	<path id="path3345_2_" fill="#4EB075" d="M456.499,536.9l6.401-16.7h2.4l6.9,16.7h-2.5l-2-5.1H460.7l-1.9,5.1H456.499z
		 M461.398,530.1h5.702l-1.8-4.7c-0.6-1.4-0.904-2.5-1.2-3.396c-0.202,1.098-0.6,2.096-0.903,3.201L461.398,530.1z"/>
</g>
<g id="answer_3_" transform="matrix(0.44024076,0,0,0.44024076,-145.40182,-196.00446)">
	<path id="path3339_3_" fill="#4EB075" d="M525.275,510.3c-11.1,0-20.202,8.999-20.202,20.199c0,11.1,8.999,20.197,20.202,20.197
		c2.099,0,3.997-0.397,5.898-0.997l3.001,7.898l1.1,2.796l0.998-2.796c4.902-13.101,9.099-19.199,9.099-26.998
		C545.372,519.399,536.473,510.3,525.275,510.3z M525.275,512.501c9.898,0,17.999,7.999,17.999,18.001
		c0,6.504-3.5,12.602-7.999,23.6l-2.303-6.2l-0.399-0.996l-0.998,0.295c-1.899,0.701-4.099,1.098-6.202,1.098
		c-9.898,0-17.999-7.999-17.999-18.001C507.374,520.599,515.373,512.501,525.275,512.501z"/>
</g>
<g id="question_1_" transform="matrix(0.44024076,0,0,0.44024076,-145.41641,-216.03873)">
	<path id="bubble_1_" fill="#999999" d="M405.3,490.7c6.2,0,11.4,5.3,11.4,11.901c0,6.499-5.1,11.901-11.4,11.901
		c-1.1,0-2.3-0.202-3.3-0.599l-1.7,4.697l-0.6,1.7l-0.6-1.7c-2.801-7.696-5.2-11.3-5.2-15.897C393.9,496.1,399,490.7,405.3,490.7z
		 M405.3,492c-5.5,0-10.1,4.705-10.1,10.601c0,3.8,2,7.4,4.5,13.904l1.3-3.7l0.2-0.599l0.6,0.202c1,0.397,2.3,0.601,3.5,0.601
		c5.5,0,10.1-4.696,10.1-10.601C415.3,496.8,410.7,492,405.3,492z"/>
	<path id="letter_1_" fill="#999999" d="M408.3,506.301c0.6,0.399,1.1,0.701,1.598,0.903l-0.398,0.905
		c-0.7-0.204-1.3-0.599-2.102-1.2c-0.701,0.397-1.504,0.601-2.298,0.601c-0.904,0-1.6-0.204-2.3-0.601
		c-0.7-0.497-1.2-1.098-1.6-1.799c-0.397-0.803-0.6-1.697-0.6-2.602c0-0.996,0.203-1.901,0.6-2.704c0.4-0.803,1-1.402,1.6-1.799
		c0.6-0.395,1.5-0.599,2.4-0.599c0.897,0,1.7,0.204,2.4,0.599c0.7,0.499,1.2,1.098,1.597,1.799c0.396,0.803,0.6,1.699,0.6,2.602
		c0,0.803-0.102,1.597-0.397,2.198C409.197,505.203,408.8,505.802,408.3,506.301L408.3,506.301z M405.599,504.602
		c0.801,0.204,1.301,0.499,1.799,0.896c0.802-0.701,1.098-1.799,1.098-3.101c0-0.803-0.102-1.503-0.396-2.094
		c-0.204-0.599-0.6-1.098-1.1-1.402c-0.5-0.397-1-0.499-1.7-0.499c-1,0-1.7,0.397-2.3,0.996c-0.6,0.601-0.998,1.699-0.998,2.999
		c0,1.302,0.398,2.298,0.998,2.897c0.6,0.6,1.3,1.1,2.3,1.1c0.5,0,0.9-0.101,1.2-0.201c-0.4-0.202-0.8-0.5-1.2-0.601
		L405.599,504.602z"/>
</g>
<g id="answer_1_" transform="matrix(0.44024076,0,0,0.44024076,-145.40182,-196.00446)">
	<path id="path3339_1_" fill="#999999" d="M405.3,508.801c-6.2,0-11.401,5.296-11.401,11.903c0,6.496,5.101,11.901,11.401,11.901
		c1.1,0,2.3-0.202,3.3-0.599l1.7,4.703l0.6,1.699l0.6-1.699c2.798-7.702,5.2-11.302,5.2-15.896
		C416.697,514.2,411.6,508.801,405.3,508.801z M405.3,510.1c5.5,0,10.1,4.698,10.1,10.6c0,3.8-2,7.4-4.5,13.898l-1.3-3.7
		l-0.201-0.601l-0.6,0.204c-0.999,0.395-2.299,0.599-3.499,0.599c-5.5,0-10.1-4.699-10.1-10.601
		C395.3,514.901,399.8,510.1,405.3,510.1z"/>
	<path id="path3345_1_" fill="#999999" d="M401,525.4l3.6-9.798h1.3l3.9,9.798h-1.4l-1.1-2.999h-3.9l-1,2.999H401z M403.799,521.4
		H407l-1-2.799c-0.4-0.801-0.5-1.501-0.7-2.001c-0.1,0.6-0.4,1.2-0.5,1.9L403.799,521.4z"/>
</g>
<g id="answer-0" transform="matrix(0.44024076,0,0,0.44024076,-145.44045,-73.676584)">
</g>
<g transform="translate(96 0)">
	<g id="icon-calendar">
		<path fill="#999999" d="M-86.9,174.3h-8.3c-0.4,0-0.7-0.4-0.7-0.7v-8.3c0-0.4,0.4-0.7,0.7-0.7h0.7v0.4c0,0.6,0.5,1.2,1.2,1.2
			c0.6,0,1.2-0.5,1.2-1.2v-0.4h2.3v0.4c0,0.6,0.5,1.2,1.2,1.2c0.6,0,1.2-0.5,1.2-1.2v-0.4h0.7c0.4,0,0.7,0.4,0.7,0.7v8.3
			C-86.2,173.9-86.5,174.3-86.9,174.3z M-86.9,167.1h-8.3v6.4h8.3V167.1z M-93.3,169h-1.2v-1.2h1.2V169z M-93.3,170.8h-1.2v-1.2h1.2
			V170.8z M-93.3,172.7h-1.2v-1.2h1.2V172.7z M-91.5,169h-1.1v-1.2h1.2L-91.5,169L-91.5,169z M-91.5,170.8h-1.1v-1.2h1.2
			L-91.5,170.8L-91.5,170.8z M-91.5,172.7h-1.1v-1.2h1.2L-91.5,172.7L-91.5,172.7z M-89.6,169h-1.1v-1.2h1.2L-89.6,169L-89.6,169z
			 M-89.6,170.8h-1.1v-1.2h1.2L-89.6,170.8L-89.6,170.8z M-89.6,172.7h-1.1v-1.2h1.2L-89.6,172.7L-89.6,172.7z M-87.7,169h-1.2v-1.2
			h1.2V169z M-87.7,170.8h-1.2v-1.2h1.2V170.8z M-87.7,172.7h-1.2v-1.2h1.2V172.7z M-88.8,165.6c-0.4,0-0.7-0.4-0.7-0.7V164
			c0-0.4,0.4-0.7,0.7-0.7c0.3,0,0.7,0.4,0.7,0.7v0.8C-88,165.2-88.4,165.6-88.8,165.6z M-93.3,165.6c-0.4,0-0.7-0.4-0.7-0.7V164
			c0-0.4,0.4-0.7,0.7-0.7c0.3,0,0.7,0.4,0.7,0.7v0.8C-92.6,165.2-93,165.6-93.3,165.6z"/>
	</g>
</g>
<g transform="translate(96 0)">
	<g id="icon-calendar_1_">
		<path fill="#EDF5FC" d="M15.514,167.359H6.247c-0.446,0-0.78-0.446-0.78-0.781v-9.266c0-0.446,0.446-0.781,0.78-0.781h0.782v0.446
			c0,0.67,0.559,1.34,1.339,1.34c0.67,0,1.34-0.558,1.34-1.34v-0.446h2.567v0.446c0,0.67,0.559,1.34,1.34,1.34
			c0.671,0,1.34-0.558,1.34-1.34v-0.446h0.779c0.447,0,0.783,0.446,0.783,0.781v9.266C16.294,166.912,15.96,167.359,15.514,167.359z
			 M15.514,159.321H6.247v7.145h9.267V159.321z M8.368,161.443H7.029v-1.34h1.339V161.443z M8.368,163.451H7.029v-1.339h1.339
			V163.451z M8.368,165.573H7.029v-1.34h1.339V165.573z M10.379,161.443H9.15v-1.34h1.34L10.379,161.443L10.379,161.443z
			 M10.379,163.451H9.15v-1.339h1.34L10.379,163.451L10.379,163.451z M10.379,165.573H9.15v-1.34h1.34L10.379,165.573
			L10.379,165.573z M12.499,161.443H11.27v-1.34h1.342L12.499,161.443L12.499,161.443z M12.499,163.451H11.27v-1.339h1.342
			L12.499,163.451L12.499,163.451z M12.499,165.573H11.27v-1.34h1.342L12.499,165.573L12.499,165.573z M14.619,161.443h-1.34v-1.34
			h1.34V161.443z M14.619,163.451h-1.34v-1.339h1.34V163.451z M14.619,165.573h-1.34v-1.34h1.34V165.573z M13.393,157.647
			c-0.447,0-0.781-0.446-0.781-0.782v-1.004c0-0.447,0.445-0.782,0.781-0.782s0.781,0.447,0.781,0.782v0.893
			C14.286,157.201,13.839,157.647,13.393,157.647z M8.368,157.647c-0.446,0-0.78-0.446-0.78-0.782v-1.004
			c0-0.447,0.446-0.782,0.78-0.782c0.336,0,0.782,0.447,0.782,0.782v0.893C9.15,157.201,8.704,157.647,8.368,157.647z"/>
	</g>
</g>
<g transform="translate(240 0)">
	<g id="icon-eye">
		<path fill="#999999" d="M-234.1,183.7c-3.7,0-5.9,4-5.9,4s2.3,4,5.9,4c3.4,0,6.1-4,6.1-4S-230.6,183.7-234.1,183.7z M-234,189.6
			c-1,0-1.8-0.8-1.8-1.8s0.8-1.8,1.8-1.8s1.8,0.8,1.8,1.8S-233,189.6-234,189.6z M-234,186.9c-0.5,0-0.9,0.4-0.9,0.9
			s0.4,0.9,0.9,0.9s0.9-0.4,0.9-0.9S-233.5,186.9-234,186.9z"/>
	</g>
</g>
<g transform="translate(192 0)">
	<g id="icon-time">
		<path fill="#999999" d="M-186.5,147.2c-3,0-5.5,2.5-5.5,5.5s2.5,5.5,5.5,5.5s5.5-2.5,5.5-5.5S-183.5,147.2-186.5,147.2z
			 M-186.5,157.1c-2.5,0-4.4-2-4.4-4.4c0-2.4,2-4.4,4.4-4.4c2.5,0,4.4,2,4.4,4.4C-182.1,155.1-184.1,157.1-186.5,157.1z M-185.2,153
			h-1.3v-2.1c0-0.3-0.2-0.5-0.5-0.5s-0.5,0.2-0.5,0.5v2.6c0,0.3,0.2,0.5,0.5,0.5h1.6c0.3,0,0.5-0.2,0.5-0.5
			C-184.8,153.2-185,153-185.2,153z"/>
	</g>
</g>
<g>
	<rect x="0.35" y="213.75" fill="#3667AF" width="11.3" height="2.3"/>
	<rect x="0.35" y="210.75" fill="#55A2D9" width="11.3" height="2.3"/>
	<path fill="#A3D9F6" d="M9.85,207.65h-7.7c-1,0-1.8,0.8-1.8,1.9v0.6h11.3v-0.6C11.65,208.45,10.85,207.65,9.85,207.65z"/>
	<path fill="#24488D" d="M0.35,216.75v0.6c0,1,0.8,1.9,1.8,1.9h4.8v2.5l2.4-2.5h0.5c1,0,1.8-0.8,1.8-1.9v-0.6H0.35z"/>
	<path opacity="0.15" fill="#FFFFFF" enable-background="new    " d="M0.35,216.75v0.6c0,1,0.8,1.9,1.8,1.9h0.3l2.4-2.5H0.35z"/>
	<polygon opacity="0.15" fill="#FFFFFF" enable-background="new    " points="10.55,210.75 0.35,210.75 0.35,213.05 8.35,213.05 	
		"/>
	<polygon opacity="0.15" fill="#FFFFFF" enable-background="new    " points="7.75,213.75 0.35,213.75 0.35,216.05 5.45,216.05 	"/>
</g>
<g>
	<path fill="#888888" d="M13.3,326.905c-2.7,2.5-4.2,5.688-4.2,9.1s1.5,6.7,4.2,9.104l-0.9,2.308c-3.4-3-5.3-7.104-5.3-11.4
		c0-4.296,1.9-8.396,5.3-11.396L13.3,326.905z M2,344.8C0.7,342,0,339,0,336s0.7-6,2-8.8c1.3-2.7,3.1-5.104,5.4-7.2l0.9,2.3
		C4.2,325.905,2,330.8,2,336s2.2,10.1,6.3,13.7L7.4,352l0,0C5.1,349.905,3.3,347.5,2,344.8L2,344.8z"/>
	<path fill="#888888" d="M37.5,324.6c3.4,3,5.3,7.104,5.3,11.4s-1.9,8.4-5.3,11.4l-0.9-2.312c2.7-2.5,4.2-5.688,4.2-9.1
		s-1.5-6.7-4.2-9.104L37.5,324.6z M48,344.8c-1.3,2.7-3.1,5.104-5.4,7.2l0,0l-0.9-2.3c4.1-3.7,6.3-8.5,6.3-13.7s-2.2-10.1-6.3-13.7
		l0.9-2.3c2.3,2.1,4.1,4.5,5.4,7.2c1.3,2.8,2,5.8,2,8.8S49.3,342,48,344.8L48,344.8z"/>
	<path fill="#888888" d="M17.7,346.2c1.8-1.3,4.1-2.104,4.9-2.3c0.5-0.104,0.5-1.4,0.5-1.4s-1.4-1.4-1.7-3.2
		c-0.8,0-1.3-1.896-0.5-2.6c0-0.7-1.1-5.604,4.1-5.604s4.1,4.9,4.1,5.604c0.8,0.7,0.3,2.6-0.5,2.6c-0.3,1.8-1.7,3.2-1.7,3.2
		s0,1.3,0.5,1.4l0,0c0.9,0.1,3.2,1,4.9,2.3c2.6-2.104,4.3-5.3,4.3-8.9c0-6.3-5.2-11.396-11.7-11.396c-6.4,0-11.7,5.1-11.7,11.396
		C13.3,340.905,15,344.1,17.7,346.2z"/>
</g>
<g transform="translate(96 0)">
	<g id="icon-cog2">
		<path fill="#333333" d="M-86.1,377.6h-0.5c-0.1,0.4-0.2,0.604-0.4,1l0.5,0.5c0.4,0.4,0.4,0.9,0,1.2l-0.4,0.4
			c-0.4,0.396-0.9,0.396-1.2,0l-0.5-0.5c-0.4,0.2-0.6,0.396-1,0.5v0.5c0,0.5-0.4,0.896-0.9,0.896h-0.4c-0.4,0-0.9-0.5-0.9-0.896
			v-0.5c-0.4-0.104-0.6-0.2-1-0.5l-0.5,0.5c-0.4,0.396-0.9,0.396-1.2,0l-0.4-0.4c-0.4-0.396-0.4-0.896,0-1.2l0.5-0.5
			c-0.2-0.396-0.4-0.6-0.4-1h-0.3c-0.4,0-0.9-0.5-0.9-0.896v-0.5c0-0.5,0.4-0.9,0.9-0.9h0.5c0.1-0.396,0.2-0.6,0.4-1l-0.5-0.5
			c-0.4-0.396-0.4-0.896,0-1.2l0.4-0.396c0.4-0.4,0.9-0.4,1.2,0l0.5,0.5c0.4-0.2,0.6-0.4,1-0.5v-0.4c0-0.5,0.4-0.896,0.9-0.896h0.4
			c0.4,0,0.9,0.5,0.9,0.896v0.5c0.4,0.104,0.6,0.2,1,0.5l0.5-0.5c0.4-0.396,0.9-0.396,1.2,0l0.4,0.4c0.4,0.396,0.4,0.896,0,1.2
			l-0.5,0.5c0.2,0.396,0.4,0.6,0.4,1h0.5c0.4,0,0.9,0.5,0.9,0.896v0.5C-85.2,377.3-85.6,377.6-86.1,377.6z M-90.5,374.2
			c-1.3,0-2.3,1.1-2.3,2.396c0,1.312,1.1,2.4,2.3,2.4s2.3-1.1,2.3-2.4C-88.2,375.3-89.3,374.2-90.5,374.2z M-90.5,377.6
			c-0.6,0-1.1-0.5-1.1-1.1s0.4-1.1,1.1-1.1s1.1,0.5,1.1,1.1C-89.5,377.2-89.9,377.6-90.5,377.6z"/>
	</g>
</g>
<g transform="translate(96 0)">
	<g id="icon-cog2_1_">
		<path fill="#999999" d="M-86.1,362.6h-0.5c-0.1,0.4-0.2,0.604-0.4,1l0.5,0.5c0.4,0.4,0.4,0.9,0,1.2l-0.4,0.4
			c-0.4,0.396-0.9,0.396-1.2,0l-0.5-0.5c-0.4,0.2-0.6,0.396-1,0.5v0.5c0,0.5-0.4,0.896-0.9,0.896h-0.4c-0.4,0-0.9-0.5-0.9-0.896
			v-0.5c-0.4-0.104-0.6-0.2-1-0.5l-0.5,0.5c-0.4,0.396-0.9,0.396-1.2,0l-0.4-0.4c-0.4-0.396-0.4-0.896,0-1.2l0.5-0.5
			c-0.2-0.396-0.4-0.6-0.4-1h-0.3c-0.4,0-0.9-0.5-0.9-0.896v-0.5c0-0.5,0.4-0.9,0.9-0.9h0.5c0.1-0.396,0.2-0.6,0.4-1l-0.5-0.5
			c-0.4-0.396-0.4-0.896,0-1.2l0.4-0.396c0.4-0.4,0.9-0.4,1.2,0l0.5,0.5c0.4-0.2,0.6-0.4,1-0.5v-0.4c0-0.5,0.4-0.896,0.9-0.896h0.4
			c0.4,0,0.9,0.5,0.9,0.896v0.5c0.4,0.104,0.6,0.2,1,0.5l0.5-0.5c0.4-0.396,0.9-0.396,1.2,0l0.4,0.4c0.4,0.396,0.4,0.896,0,1.2
			l-0.5,0.5c0.2,0.396,0.4,0.6,0.4,1h0.5c0.4,0,0.9,0.5,0.9,0.896v0.5C-85.2,362.3-85.6,362.6-86.1,362.6z M-90.5,359.2
			c-1.3,0-2.3,1.1-2.3,2.396c0,1.312,1.1,2.4,2.3,2.4s2.3-1.1,2.3-2.4C-88.2,360.3-89.3,359.2-90.5,359.2z M-90.5,362.6
			c-0.6,0-1.1-0.5-1.1-1.1s0.4-1.1,1.1-1.1s1.1,0.5,1.1,1.1C-89.5,362.2-89.9,362.6-90.5,362.6z"/>
	</g>
</g>
<g transform="translate(432 0)">
	<g id="icon-user2">
		<path fill="#ADADAD" d="M-393.8,115.8c-1.7-0.6-2.2-1.2-2.2-2.4c0-0.7,0.5-0.5,0.7-1.8c0.1-0.6,0.6,0,0.6-1.2
			c0-0.5-0.3-0.6-0.3-0.6s0.1-0.7,0.2-1.3c0.1-0.6-0.4-2.5-2.7-2.5c-2.4,0-2.8,1.8-2.7,2.5c0,0.6,0.2,1.3,0.2,1.3s-0.3,0.1-0.3,0.6
			c0.1,1.2,0.5,0.6,0.6,1.2c0.2,1.3,0.7,1,0.7,1.8c0,1.2-0.5,1.8-2.2,2.4c-1.7,0.6-2.8,1.3-2.8,1.8s0,1.5,0,1.5h13c0,0,0-1.1,0-1.5
			C-391,117.1-392.1,116.4-393.8,115.8L-393.8,115.8z"/>
	</g>
</g>
<g transform="translate(432 0)">
	<g id="icon-user2_1_">
		<path fill="#2A2A28" d="M-375.8,115.7c-1.7-0.6-2.2-1.2-2.2-2.4c0-0.7,0.5-0.5,0.7-1.8c0.1-0.6,0.6,0,0.6-1.2
			c0-0.5-0.3-0.6-0.3-0.6s0.1-0.7,0.2-1.3c0.1-0.6-0.4-2.5-2.7-2.5c-2.4,0-2.8,1.8-2.7,2.5c0,0.6,0.2,1.3,0.2,1.3s-0.3,0.1-0.3,0.6
			c0.1,1.2,0.5,0.6,0.6,1.2c0.2,1.3,0.7,1,0.7,1.8c0,1.2-0.5,1.8-2.2,2.4c-1.7,0.6-2.8,1.3-2.8,1.8s0,1.5,0,1.5h13c0,0,0-1.1,0-1.5
			C-373,117-374.1,116.3-375.8,115.7L-375.8,115.7z"/>
	</g>
</g>
<path fill="#999999" d="M6.3,395l3.4-3.4c0.4-0.396,0.4-1,0-1.3c-0.4-0.396-1-0.396-1.3,0L5,393.7l-3.4-3.4
	c-0.4-0.396-1-0.396-1.3,0c-0.4,0.4-0.4,1,0,1.3l3.4,3.4l-3.4,3.4c-0.4,0.396-0.4,1,0,1.3c0.4,0.396,1,0.396,1.3,0l3.4-3.4l3.4,3.4
	c0.4,0.396,1,0.396,1.3,0c0.4-0.4,0.4-1,0-1.3L6.3,395z"/>
<path fill="#999999" d="M0,417.8l3.7-3.8L0,410.2l1.1-1.2l4.9,5l-4.9,5L0,417.8z"/>
<path fill="#CCCCCC" d="M21,382.3l4.9-5.3l-4.9-5.3l1.5-1.7l6.5,7l-6.5,7L21,382.3z"/>
<path fill="#333333" d="M34,382.3l4.9-5.3l-4.9-5.3l1.5-1.7l6.5,7l-6.5,7L34,382.3z"/>
<path fill="#FFFFFF" d="M15,417.8l3.7-3.8l-3.7-3.8l1.1-1.2l4.9,5l-4.9,5L15,417.8z"/>
<path fill="#FFFFFF" d="M85.2,411l3.8,3.7l3.8-3.7l1.2,1.1l-5,4.9l-5-4.9L85.2,411z"/>
<path fill="#999999" d="M28,164v-7.2h1.3v-2.2c0-2,1.6-3.6,3.5-3.6h0.4c1.9,0,3.5,1.6,3.5,3.6v2.2H38v7.2H28z M32.7,160.1l-0.4,2.9
	h1.5l-0.4-2.9c0.4-0.1,0.6-0.6,0.6-1c0-0.6-0.4-1.1-1-1.1s-1,0.4-1,1.1C32,159.6,32.3,159.9,32.7,160.1z M35.4,154.8
	c0-1.4-1.1-2.5-2.4-2.5s-2.4,1.1-2.4,2.5v2h4.8V154.8z"/>
<path fill="#CCCCCC" d="M55.8,375.3l1.9,1.9l3.5-3.5l1.8,1.8v-5.4h-5.4l1.8,1.812C59.3,371.8,55.8,375.3,55.8,375.3z M62.9,377.7
	l-1.3-1.4v6.3H50.4V371.41h6.3l-1.4-1.4h-4.9c-0.8,0-1.4,0.604-1.4,1.4V382.6c0,0.812,0.6,1.4,1.4,1.4h11.2c0.8,0,1.4-0.6,1.4-1.4
	L62.9,377.7z"/>
<path fill="#333333" d="M76.8,375.3l1.9,1.9l3.5-3.5l1.8,1.8v-5.4h-5.4l1.801,1.812C80.3,371.8,76.8,375.3,76.8,375.3z M83.9,377.7
	l-1.301-1.4v6.3H71.4V371.41h6.3l-1.4-1.4H71.4c-0.801,0-1.4,0.604-1.4,1.4V382.6c0,0.812,0.6,1.4,1.4,1.4H82.6
	c0.801,0,1.4-0.6,1.4-1.4L83.9,377.7z"/>
<path fill="#E4ECF7" d="M102.8,375.3l1.9,1.9l3.5-3.5l1.8,1.8v-5.4h-5.4l1.801,1.812C106.3,371.8,102.8,375.3,102.8,375.3z
	 M109.9,377.7l-1.301-1.4v6.3H97.4V371.41h6.3l-1.4-1.4H97.4c-0.801,0-1.4,0.604-1.4,1.4V382.6c0,0.812,0.6,1.4,1.4,1.4H108.6
	c0.801,0,1.4-0.6,1.4-1.4L109.9,377.7z"/>
<g>
	<rect x="57.8" y="95.15" fill="#999999" width="5.7" height="1"/>
	<polygon fill="#999999" points="64.5,92.45 64.5,97.15 56.8,97.15 56.8,92.45 55.8,92.45 55.8,98.15 55.8,98.15 65.5,98.15 
		65.5,92.45 	"/>
	
		<rect x="57.903" y="93.353" transform="matrix(-0.9958 -0.0919 0.0919 -0.9958 112.5239 192.8871)" fill="#999999" width="5.6" height="1"/>
	<polygon fill="#999999" points="63.6,93.15 58.1,91.85 58.3,90.75 63.8,92.15 	"/>
	<polygon fill="#999999" points="63.899,91.55 59,89.05 59.5,88.25 64.399,90.75 	"/>
	<polygon fill="#999999" points="64.7,90.35 60.4,86.75 61,86.05 65.399,89.65 	"/>
	<polygon fill="#999999" points="65.7,89.15 62.5,84.65 63.3,84.15 66.5,88.65 	"/>
</g>
<path fill="#999999" d="M29.1,389c1,0,1.9,0.8,1.9,1.9c0,0.396-0.1,0.8-0.4,1.1l-0.8,0.8l-2.6-2.6l0.8-0.8
	C28.3,389.1,28.7,389,29.1,389z M19.7,397.6L19,401l3.4-0.8l6.9-6.9l-2.6-2.6L19.7,397.6z"/>
<path fill="#333333" d="M46.1,389c1,0,1.9,0.8,1.9,1.9c0,0.396-0.1,0.8-0.4,1.1l-0.8,0.8l-2.6-2.6l0.8-0.8
	C45.3,389.1,45.7,389,46.1,389z M36.7,397.6L36,401l3.4-0.8l6.9-6.9l-2.6-2.6L36.7,397.6z"/>
<path fill="#FFFFFF" d="M31,412.5c0-0.5,0.2-0.9,0.5-1.2l2.3-2.396c0.3-0.312,0.7-0.5,1.1-0.5s0.8,0.188,1.1,0.5l4.9,5.188l11-11.6
	c0.3-0.3,0.7-0.5,1.1-0.5s0.8,0.2,1.1,0.5l2.3,2.396c0.3,0.306,0.5,0.693,0.5,1.193s-0.2,0.899-0.5,1.2L42,422.5
	c-0.3,0.3-0.7,0.5-1.1,0.5s-0.8-0.2-1.1-0.5l-8.4-8.8C31.2,413.405,31,413,31,412.5L31,412.5z"/>
<path fill="#44B449" d="M62,407c0-0.2,0.1-0.4,0.2-0.6l1.1-1.104c0.101-0.1,0.3-0.2,0.5-0.2s0.4,0.104,0.5,0.2l2.3,2.5l5.104-5.5
	c0.101-0.1,0.3-0.2,0.5-0.2c0.196,0,0.396,0.104,0.5,0.2l1.101,1.104c0.104,0.1,0.199,0.3,0.199,0.6s-0.104,0.4-0.199,0.6
	l-6.697,7.2c-0.104,0.104-0.303,0.2-0.5,0.2c-0.191,0-0.396-0.1-0.5-0.2l-3.896-4.2C62.1,407.405,62,407.2,62,407L62,407z"/>
<g opacity="0.5">
	<g>
		<path fill="#333333" d="M80.6,177h-9.1c-0.8,0-1.5,0.6-1.5,1.5v6.2c0,0.8,0.6,1.5,1.5,1.5h4.6L77,189l1.8-2.9h1.8
			c0.801,0,1.5-0.6,1.5-1.5v-6.1C82.1,177.7,81.3,177,80.6,177z"/>
	</g>
</g>
<g opacity="0.5">
	<path id="pensil_1_" fill="#333333" d="M101.8,178.7l-1.3-1.4c-0.4-0.4-0.9-0.4-1.2,0l-0.899,0.8l2.5,2.7l0.899-0.8
		C102,179.6,102.1,179,101.8,178.7z M91.5,184.9l2.5,2.7l6.1-6l-2.5-2.7L91.5,184.9z M90,189l2.9-0.5l-2.4-2.6L90,189z"/>
</g>
<path opacity="0.5" fill="#333333" enable-background="new    " d="M39.6,177.9V177h-9.2v0.9H28v4.2c0,0.8,1.1,1.6,2.7,1.9
	c0.6,0.9,1.9,1.6,3.4,1.8v1.7c-1.8,0.2-3.1,0.7-3.1,1.4h8c0-0.7-1.3-1.2-3.1-1.4V186c1.5-0.2,2.7-0.8,3.3-1.8c1.6-0.4,2.8-1,2.8-1.9
	V178h-2.4V177.9z M30.3,182.7c0,0.1,0,0.1,0,0.2c0,0,0,0,0,0.1c-0.8-0.3-1.3-0.6-1.3-0.7V179h1.3V182.7z M37,184.1l-2-1.3l-2,1.3
	l0.7-2.2l-2-1.3h2.4l0.7-2.2l0.7,2.1h2.4l-2,1.3L37,184.1z M40.9,182.3c0,0.2-0.5,0.6-1.3,0.7v-0.1c0-0.1,0-0.1,0-0.2v-3.8h1.3
	V182.3z"/>
<g opacity="0.5">
	<polygon fill="#333333" points="57.4,184.4 52.7,177.1 48,184.4 51.3,184.4 51.3,187.9 54.2,187.9 54.2,184.4 	"/>
	<path fill="#333333" d="M61.5,180.6V177h-2.9v3.6h-3.4l4.9,7.5l4.9-7.5H61.5z M56.8,181.6h1.8h0.9v-0.9v-2.8h1.1v2.8v0.9h0.9h1.8
		l-3.2,4.9L56.8,181.6z"/>
</g>
<path fill="#999999" d="M6.9,63c2.8,0,5.1,2.2,5.1,5s-2.3,5-5.1,5v-1.1c1.1,0,2.1-0.4,2.8-1.2c0.7-0.8,1.2-1.7,1.2-2.8
	s-0.4-2-1.2-2.8c-0.7-0.6-1.7-1-2.8-1s-2.1,0.4-2.8,1.2c-0.6,0.6-1,1.3-1.1,2.1h2.1l-2.5,2.9l-2.6-3h1.9C2.2,64.9,4.3,63,6.9,63z"/>
<path fill="#999999" d="M35.5,62.5L35.2,61H28v13h1.6v-5.4h4.5l0.3,1.5H40v-7.6H35.5z"/>
<polygon fill="#999999" points="34.5,134 28,142 41,142 "/>
<path fill="#999999" d="M38.1,81c1,0,1.9,0.8,1.9,1.9c0,0.4-0.1,0.8-0.4,1.1l-0.8,0.8l-2.6-2.6l0.8-0.8C37.3,81.1,37.7,81,38.1,81z
	 M28.7,89.6L28,93l3.4-0.8l6.9-6.9l-2.6-2.6L28.7,89.6z"/>
<polygon fill="#999999" points="80.044,334.063 78.5,335.613 76.956,334.063 76.062,334.956 77.605,336.5 76.062,338.045 
	76.956,338.938 78.5,337.394 80.044,338.938 80.938,338.045 79.395,336.5 80.938,334.956 "/>
<path fill="#44B449" d="M99.5,338c0-0.1,0.1-0.2,0.1-0.4l0.604-0.688c0.101-0.104,0.196-0.104,0.3-0.104s0.2,0.104,0.301,0.104
	l1.303,1.5l3-3.312c0.104-0.1,0.197-0.1,0.309-0.1c0.104,0,0.191,0.1,0.3,0.1l0.604,0.7c0.104,0.104,0.104,0.2,0.104,0.4
	s-0.104,0.2-0.104,0.396L102.4,341c-0.104,0.1-0.2,0.1-0.301,0.1c-0.104,0-0.199-0.1-0.312-0.1l-2.302-2.5
	C99.6,338.2,99.5,338.1,99.5,338L99.5,338z"/>
<path fill="#44B449" d="M103,332c3.3,0,6,2.7,6,6s-2.7,6-6,6s-6-2.7-6-6S99.7,332,103,332 M103,330c-4.4,0-8,3.6-8,8s3.6,8,8,8
	s8-3.6,8-8S107.4,330,103,330L103,330z"/>
<path fill="#76746D" d="M99.5,308.68c0-0.1,0.1-0.188,0.1-0.396l0.604-0.699c0.101-0.101,0.196-0.101,0.3-0.101
	s0.2,0.101,0.301,0.101l1.303,1.5l3-3.306c0.104-0.1,0.197-0.1,0.309-0.1c0.104,0,0.191,0.1,0.3,0.1l0.604,0.705
	c0.104,0.101,0.104,0.188,0.104,0.396s-0.104,0.2-0.104,0.399l-3.896,4.396c-0.104,0.104-0.195,0.104-0.303,0.104
	c-0.104,0-0.197-0.104-0.301-0.104l-2.303-2.5C99.6,308.88,99.5,308.78,99.5,308.68L99.5,308.68z"/>
<path fill="#76746D" d="M103,302.68c3.3,0,6,2.7,6,6c0,3.312-2.7,6-6,6s-6-2.688-6-6C97,305.38,99.7,302.68,103,302.68 M103,300.68
	c-4.4,0-8,3.6-8,8s3.6,8,8,8s8-3.6,8-8S107.4,300.68,103,300.68L103,300.68z"/>
<g>
	<circle fill="#C03433" cx="78.702" cy="307.135" r="6.293"/>
	<path fill="#FFFFFF" d="M81.798,308.976L81.798,308.976l-1.84-1.84l1.84-1.84l0,0c0,0,0,0,0-0.097c0-0.098,0-0.193,0-0.193
		l-0.87-0.871c-0.098-0.098-0.098-0.098-0.193,0h-0.098l0,0l-1.841,1.838l-1.839-1.838l0,0c0,0,0,0-0.098,0
		c-0.096,0-0.191,0-0.191,0l-0.873,0.871c-0.095,0.098-0.095,0.098,0,0.193v0.097l0,0l1.842,1.84l-1.842,1.84l0,0c0,0,0,0,0,0.104
		c0,0.097,0,0.188,0,0.188l0.873,0.871c0.096,0.104,0.096,0.104,0.191,0h0.098l0,0l1.839-1.839l1.841,1.839l0,0c0,0,0,0,0.098,0
		c0.104,0,0.193,0,0.193,0l0.87-0.871C81.798,309.266,81.798,309.169,81.798,308.976C81.798,309.072,81.798,309.072,81.798,308.976z
		"/>
</g>
<rect x="67.909" y="204.864" fill="#C5C5C5" width="9" height="9"/>
<polygon fill="#E17D3C" points="57.909,213.863 52.909,204.864 47.909,213.863 "/>
<circle fill="#F2C500" cx="92.409" cy="209.364" r="4.5"/>
<text transform="matrix(1 0 0 1 83.2881 42.3615)" fill="#4EB075" font-family="'MyriadPro-Regular'" font-size="12">T</text>
<polygon fill="#FFFFFF" points="-77.5,102.788 -77.5,102.788 -78,102.788 -78,102.788 -78,102.788 -78,102.788 "/>
<path id="location_1_" fill="#ECF8FE" d="M65.201,158.913c0-2.4-1.899-4.4-4.3-4.4c-2.4,0-4.3,2-4.3,4.4c0,0.8,0.2,1.5,0.6,2.2l0,0
	l0,0l2.8,4.7c0.5,0.9,1.4,0.9,1.9,0l2.701-4.7l0,0l0,0C65.002,160.413,65.201,159.713,65.201,158.913z M60.901,160.213
	c-0.9,0-1.6-0.7-1.6-1.7c0-0.9,0.7-1.7,1.6-1.7s1.601,0.7,1.601,1.7C62.502,159.413,61.802,160.213,60.901,160.213z"/>
<path fill="#F1F8FD" d="M82.572,166.659c0,0-8.432-8.691-4.135-11.533c2.479-1.64,4.092,0.458,4.092,0.458s1.613-2.098,4.094-0.458
	C90.92,157.968,82.572,166.659,82.572,166.659 M82.502,157.193c-0.163-0.231-0.63-0.699-0.863-0.88
	c-0.229-0.18-1.199-0.907-2.455-0.077c-0.379,0.25-0.562,0.546-0.604,0.988c-0.014,0.081-0.02,0.165-0.02,0.251
	c0,1.916,2.146,5.037,4.008,7.188c1.828-2.145,3.938-5.25,3.938-7.167c0-0.09-0.005-0.176-0.015-0.261
	c-0.054-0.448-0.234-0.747-0.617-1c-1.255-0.83-1.952-0.316-2.372,0.008C82.945,156.676,82.688,156.962,82.502,157.193"/>
<g transform="translate(96 0)">
	<g id="icon-cog2_2_">
		<path fill="#D32027" d="M-14.898,112.886h-0.638c-0.128,0.51-0.255,0.771-0.509,1.273l0.636,0.636
			c0.511,0.509,0.511,1.146,0,1.527l-0.51,0.51c-0.508,0.503-1.146,0.503-1.526,0l-0.636-0.636c-0.51,0.254-0.765,0.503-1.272,0.636
			v0.636c0,0.636-0.51,1.14-1.146,1.14h-0.51c-0.509,0-1.146-0.636-1.146-1.14v-0.636c-0.516-0.133-0.771-0.255-1.271-0.636
			l-0.637,0.636c-0.517,0.503-1.146,0.503-1.527,0l-0.51-0.51c-0.508-0.503-0.508-1.14,0-1.527l0.637-0.636
			c-0.254-0.503-0.51-0.763-0.51-1.273h-0.381c-0.51,0-1.146-0.636-1.146-1.14v-0.636c0-0.637,0.512-1.146,1.146-1.146h0.637
			c0.127-0.503,0.254-0.763,0.509-1.273l-0.638-0.636c-0.508-0.503-0.508-1.14,0-1.528l0.511-0.503c0.508-0.51,1.146-0.51,1.526,0
			l0.638,0.636c0.508-0.255,0.763-0.51,1.272-0.636v-0.51c0-0.636,0.508-1.14,1.145-1.14h0.51c0.51,0,1.145,0.636,1.145,1.14v0.636
			c0.517,0.133,0.771,0.255,1.272,0.636l0.638-0.636c0.51-0.503,1.146-0.503,1.526,0l0.511,0.51c0.508,0.503,0.508,1.14,0,1.527
			l-0.638,0.636c0.255,0.503,0.509,0.763,0.509,1.273h0.637c0.516,0,1.146,0.636,1.146,1.14v0.636
			C-13.755,112.505-14.264,112.886-14.898,112.886z M-20.5,108.56c-1.654,0-2.927,1.399-2.927,3.049
			c0,1.662,1.399,3.055,2.927,3.055s2.927-1.399,2.927-3.055C-17.573,109.959-18.973,108.56-20.5,108.56z M-20.5,112.886
			c-0.764,0-1.398-0.636-1.398-1.399c0-0.763,0.508-1.399,1.398-1.399c0.893,0,1.398,0.636,1.398,1.399
			C-19.229,112.378-19.736,112.886-20.5,112.886z"/>
	</g>
</g>
<path fill="#60BB46" d="M91.928,117.992v-7.547h1.362v-2.306c0-2.096,1.677-3.773,3.669-3.773h0.419
	c1.992,0,3.669,1.677,3.669,3.773v2.306h1.362v7.547H91.928z M96.854,113.904l-0.42,3.04h1.572l-0.42-3.04
	c0.42-0.105,0.63-0.629,0.63-1.048c0-0.629-0.419-1.153-1.049-1.153c-0.629,0-1.048,0.419-1.048,1.153
	C96.12,113.38,96.436,113.694,96.854,113.904z M99.684,108.349c0-1.467-1.146-2.621-2.516-2.621c-1.361,0-2.516,1.153-2.516,2.621
	v2.096h5.031V108.349L99.684,108.349z"/>
<path fill="#72BF44" d="M93.469,92.25v-6.077h1.098v-1.856c0-1.688,1.354-3.039,2.955-3.039h0.338c1.604,0,2.953,1.35,2.953,3.039
	v1.856h1.104v6.077H93.469z M97.436,88.959l-0.338,2.448h1.271l-0.342-2.448c0.342-0.084,0.511-0.506,0.511-0.844
	c0-0.506-0.337-0.928-0.849-0.928c-0.506,0-0.844,0.337-0.844,0.928C96.846,88.536,97.098,88.79,97.436,88.959z M99.714,84.485
	c0-1.182-0.928-2.11-2.024-2.11c-1.098,0-2.021,0.928-2.021,2.11v1.688h4.05L99.714,84.485L99.714,84.485z"/>
<g transform="translate(432 0)">
	<g id="icon-user2_2_">
		<path fill="#F47C20" d="M-338.15,86.308c-1.181-0.417-1.521-0.833-1.521-1.667c0-0.486,0.347-0.348,0.479-1.25
			c0.068-0.417,0.416,0,0.416-0.833c0-0.348-0.207-0.417-0.207-0.417s0.068-0.486,0.145-0.903c0.062-0.417-0.278-1.737-1.875-1.737
			c-1.669,0-1.945,1.25-1.878,1.737c0,0.417,0.142,0.903,0.142,0.903s-0.209,0.069-0.209,0.417c0.062,0.833,0.354,0.417,0.416,0.833
			c0.146,0.903,0.48,0.695,0.48,1.25c0,0.833-0.348,1.25-1.522,1.667s-1.938,0.903-1.938,1.25c0,0.347,0,1.042,0,1.042h9.025
			c0,0,0-0.764,0-1.042C-336.204,87.211-336.969,86.725-338.15,86.308L-338.15,86.308z"/>
	</g>
</g>
<path id="link_1_" fill="#191A0E" d="M92.934,69.167c-0.6-0.6-0.6-1.5-0.1-2.1l2.5-2.5c-0.4-0.4-1.801-0.4-2.602,0.4l-1,1
	c-1.104,1.3-1.104,2.9,0.201,4.2c1.299,1.3,3,1.3,4.193,0.1l1-1c0.7-0.7,0.807-2.1,0.396-2.5l-2.5,2.5
	C94.533,69.767,93.434,69.667,92.934,69.167z M97.834,60.067l-1,1c-0.801,0.8-0.9,2.1-0.4,2.5l2.4-2.4c0.5-0.5,1.5-0.5,2.1,0.1
	c0.5,0.5,0.604,1.6,0,2.1l-2.5,2.5c0.5,0.3,1.801,0.3,2.604-0.5l1-1c1.196-1.2,1.104-2.9-0.104-4.2
	C100.634,58.867,98.934,58.867,97.834,60.067z M94.434,67.667c0.301,0.3,0.801,0.3,1,0l4-4c0.301-0.3,0.301-0.7,0-1
	c-0.3-0.3-0.8-0.3-1,0l-4,4C94.134,66.966,94.134,67.367,94.434,67.667z"/>
<g transform="translate(432 0)">
	<g id="icon-user2_3_">
		<path fill="#EDF5FC" d="M-367.15,68.416c-1.699-0.6-2.2-1.2-2.2-2.4c0-0.7,0.5-0.5,0.7-1.8c0.104-0.6,0.604,0,0.604-1.2
			c0-0.5-0.304-0.6-0.304-0.6s0.104-0.7,0.199-1.3c0.104-0.6-0.396-2.5-2.702-2.5c-2.4,0-2.8,1.8-2.7,2.5c0,0.6,0.2,1.3,0.2,1.3
			s-0.3,0.1-0.3,0.6c0.1,1.2,0.5,0.6,0.6,1.2c0.2,1.3,0.7,1,0.7,1.8c0,1.2-0.5,1.8-2.2,2.4c-1.7,0.6-2.8,1.3-2.8,1.8s0,1.5,0,1.5h13
			c0,0,0-1.1,0-1.5C-364.35,69.716-365.45,69.016-367.15,68.416L-367.15,68.416z"/>
	</g>
</g>
<path fill="#444444" d="M9.728,228.356l-1.462,1.463l1.462,1.461l-3.409,3.896h-3.41l2.68,2.68l-4.142,5.49v0.6h0.601l5.488-4.139
	l2.68,2.678v-3.406l3.898-3.412l1.461,1.463l1.462-1.463L9.728,228.356z M8.266,236.637l-0.973-0.975l3.409-3.412l0.976,0.977
	L8.266,236.637z"/>
<path fill="#444444" d="M103.943,232.292c6.089,0,11.023,3.653,11.023,8.161c0,4.506-4.938,8.161-11.023,8.161
	c-0.586,0-1.159-0.035-1.721-0.101c-2.369,2.158-5.195,2.545-7.929,2.603v-0.528c1.478-0.658,2.757-1.857,2.757-3.229
	c0-0.191-0.016-0.379-0.048-0.564c-2.496-1.494-4.087-3.781-4.087-6.341C92.918,235.946,97.854,232.292,103.943,232.292z"/>
<path fill="#888888" d="M103,265.34c6.089,0,11.025,3.653,11.025,8.161c0,4.506-4.938,8.161-11.025,8.161
	c-0.586,0-1.159-0.035-1.721-0.102c-2.368,2.16-5.195,2.545-7.928,2.604v-0.527c1.477-0.66,2.758-1.859,2.758-3.229
	c0-0.191-0.018-0.38-0.049-0.564c-2.496-1.493-4.086-3.78-4.086-6.341C91.975,268.993,96.911,265.34,103,265.34z"/>
<path fill="#444444" d="M50.835,249.914l-5.153-4.382c-0.541-0.487-1.121-0.712-1.588-0.689c1.236-1.448,1.983-3.325,1.983-5.378
	c0-4.579-3.711-8.289-8.289-8.289c-4.576,0-8.288,3.713-8.288,8.287c0,4.578,3.71,8.288,8.288,8.288
	c2.053,0,3.931-0.747,5.378-1.983c-0.022,0.469,0.203,1.049,0.69,1.588l4.316,5.076c0.031-0.012,0.063-0.021,0.096-0.031
	c0.201-0.319,0.968-0.993,1.525-1.553c0.61-0.615,0.887-0.814,1.013-0.871C50.816,249.956,50.825,249.936,50.835,249.914z
	 M37.788,244.989c-3.051,0-5.525-2.474-5.525-5.524c0-3.05,2.474-5.525,5.525-5.525c3.052,0,5.525,2.477,5.525,5.525
	C43.315,242.518,40.839,244.989,37.788,244.989z"/>
<path fill="#888888" d="M50.835,281.647l-5.153-4.381c-0.541-0.488-1.121-0.713-1.588-0.688c1.236-1.449,1.983-3.326,1.983-5.378
	c0-4.579-3.711-8.289-8.289-8.289c-4.576,0-8.288,3.712-8.288,8.285c0,4.578,3.71,8.289,8.288,8.289
	c2.053,0,3.931-0.748,5.378-1.982c-0.022,0.471,0.203,1.048,0.69,1.587l4.316,5.077c0.031-0.014,0.063-0.021,0.096-0.031
	c0.201-0.32,0.968-0.994,1.525-1.553c0.61-0.615,0.887-0.814,1.013-0.871C50.816,281.69,50.825,281.667,50.835,281.647z
	 M37.788,276.723c-3.051,0-5.525-2.474-5.525-5.523c0-3.053,2.474-5.526,5.525-5.526c3.052,0,5.525,2.478,5.525,5.526
	C43.315,274.249,40.839,276.723,37.788,276.723z"/>
<path fill="#444444" d="M79.271,251.565c-2.071,0-3.756-1.686-3.756-3.756v-2.254h-3.004v2.254c0,2.07-1.688,3.756-3.758,3.756
	s-3.756-1.686-3.756-3.756c0-2.068,1.686-3.756,3.756-3.756h2.253v-3.004h-2.253c-2.07,0-3.756-1.686-3.756-3.755
	c0-2.071,1.686-3.757,3.756-3.757s3.758,1.686,3.758,3.757v2.253h3.004v-2.253c0-2.071,1.685-3.757,3.756-3.757
	c2.068,0,3.754,1.686,3.754,3.757c0,2.069-1.686,3.755-3.754,3.755h-2.254v3.004h2.254c2.068,0,3.754,1.688,3.754,3.756
	C83.025,249.879,81.342,251.565,79.271,251.565z M77.018,245.555v2.254c0,1.242,1.012,2.254,2.254,2.254s2.252-1.012,2.252-2.254
	s-1.01-2.254-2.252-2.254H77.018z M68.756,245.555c-1.242,0-2.254,1.012-2.254,2.254s1.012,2.254,2.254,2.254
	s2.253-1.012,2.253-2.254v-2.254H68.756z M72.512,244.053h3.004v-3.004h-3.004V244.053z M77.018,239.547h2.254
	c1.242,0,2.252-1.012,2.252-2.253c0-1.243-1.01-2.255-2.252-2.255s-2.254,1.012-2.254,2.255V239.547z M68.756,235.039
	c-1.242,0-2.254,1.012-2.254,2.255c0,1.241,1.012,2.253,2.254,2.253h2.253v-2.253C71.009,236.051,69.998,235.039,68.756,235.039z"/>
<path fill="#888888" d="M79.271,285.768c-2.071,0-3.756-1.686-3.756-3.756v-2.254h-3.004v2.254c0,2.07-1.687,3.756-3.758,3.756
	c-2.07,0-3.754-1.686-3.754-3.757c0-2.069,1.684-3.755,3.755-3.755h2.253v-3.004h-2.253c-2.071,0-3.755-1.686-3.755-3.755
	c0-2.071,1.684-3.757,3.755-3.757s3.757,1.686,3.757,3.757v2.253h3.004v-2.253c0-2.071,1.686-3.757,3.756-3.757
	s3.754,1.686,3.754,3.757c0,2.069-1.684,3.755-3.754,3.755h-2.254v3.004h2.254c2.07,0,3.754,1.686,3.754,3.755
	C83.025,284.082,81.342,285.768,79.271,285.768z M77.018,279.758v2.253c0,1.243,1.01,2.255,2.254,2.255
	c1.242,0,2.252-1.012,2.252-2.255c0-1.241-1.01-2.253-2.252-2.253H77.018z M68.755,279.758c-1.241,0-2.253,1.012-2.253,2.253
	c0,1.243,1.012,2.255,2.253,2.255c1.242,0,2.253-1.012,2.253-2.255v-2.253H68.755z M72.512,278.256h3.004v-3.004h-3.004V278.256z
	 M77.018,273.75h2.254c1.242,0,2.252-1.012,2.252-2.253c0-1.243-1.01-2.255-2.252-2.255c-1.244,0-2.254,1.012-2.254,2.255V273.75z
	 M68.755,269.242c-1.241,0-2.253,1.012-2.253,2.255c0,1.241,1.012,2.253,2.253,2.253h2.253v-2.253
	C71.008,270.254,69.997,269.242,68.755,269.242z"/>
<polygon fill="#444444" points="44.167,302.231 38,295.731 38,308.732 "/>
<polygon fill="#444444" points="57.909,305.315 64.409,299.147 51.409,299.147 "/>
<path fill="#444444" d="M18.342,298.914c-0.577-0.15-1.932-0.148-3.914-0.202c0.094-0.433,0.115-0.821,0.115-1.517
	c0-1.653-1.205-3.11-2.271-3.11c-0.753,0-1.374,0.615-1.383,1.372c-0.01,0.93-0.297,2.533-1.845,3.348
	c-0.113,0.06-0.438,0.219-0.485,0.239l0.024,0.021c-0.242-0.209-0.578-0.369-0.922-0.369H6.277c-0.763,0-1.383,0.621-1.383,1.384
	v7.378c0,0.764,0.621,1.384,1.383,1.384H7.66c0.549,0,1.008-0.331,1.23-0.796c0.005,0.002,0.015,0.004,0.021,0.005
	c0.03,0.009,0.066,0.019,0.11,0.029c0.008,0.002,0.012,0.003,0.021,0.005c0.266,0.066,0.777,0.188,1.87,0.439
	c0.234,0.054,1.472,0.316,2.754,0.316h2.521c0.768,0,1.322-0.296,1.651-0.889c0.005-0.01,0.111-0.217,0.197-0.496
	c0.065-0.211,0.089-0.509,0.011-0.812c0.496-0.341,0.655-0.854,0.759-1.189c0.174-0.549,0.122-0.962,0-1.258
	c0.278-0.262,0.516-0.663,0.616-1.274c0.062-0.38-0.004-0.771-0.179-1.094c0.261-0.294,0.38-0.662,0.394-1.004l0.005-0.097
	c0.003-0.061,0.006-0.099,0.006-0.23C19.65,299.915,19.247,299.172,18.342,298.914z M8.122,307.457c0,0.255-0.206,0.462-0.461,0.462
	H6.277c-0.255,0-0.461-0.207-0.461-0.462v-7.378c0-0.255,0.206-0.461,0.461-0.461H7.66c0.255,0,0.461,0.206,0.461,0.461
	L8.122,307.457L8.122,307.457z M18.717,300.787c-0.009,0.229-0.104,0.676-0.912,0.676c-0.691,0-0.922,0-0.922,0
	c-0.128,0-0.23,0.104-0.23,0.23c0,0.125,0.103,0.229,0.23,0.229c0,0,0.202,0,0.894,0c0.691,0,0.782,0.574,0.738,0.851
	c-0.057,0.345-0.218,0.994-0.998,0.994c-0.778,0-1.095,0-1.095,0c-0.127,0-0.23,0.104-0.23,0.23s0.103,0.23,0.23,0.23
	c0,0,0.548,0,0.908,0c0.778,0,0.709,0.594,0.598,0.946c-0.146,0.466-0.237,0.897-1.217,0.897c-0.332,0-0.752,0-0.752,0
	c-0.128,0-0.231,0.103-0.231,0.229s0.103,0.23,0.231,0.23c0,0,0.319,0,0.723,0c0.504,0,0.527,0.478,0.475,0.647
	c-0.058,0.188-0.126,0.326-0.128,0.332c-0.14,0.252-0.364,0.403-0.839,0.403h-2.521c-1.267,0-2.522-0.288-2.555-0.295
	c-1.916-0.441-2.017-0.476-2.137-0.51c0,0-0.391-0.065-0.391-0.406l-0.003-6.369c0-0.216,0.138-0.411,0.366-0.479
	c0.028-0.012,0.067-0.022,0.095-0.034c2.106-0.872,2.748-2.785,2.767-4.355c0.002-0.221,0.173-0.462,0.461-0.462
	c0.487,0,1.349,0.979,1.349,2.189c0,1.094-0.044,1.283-0.427,2.422c4.611,0,4.579,0.066,4.986,0.173
	c0.504,0.146,0.547,0.562,0.547,0.706C18.728,300.655,18.723,300.633,18.717,300.787z M6.969,306.074
	c-0.382,0-0.692,0.31-0.692,0.69c0,0.382,0.31,0.691,0.692,0.691c0.382,0,0.691-0.31,0.691-0.691
	C7.66,306.384,7.351,306.074,6.969,306.074z M6.969,306.996c-0.127,0-0.23-0.104-0.23-0.23s0.104-0.229,0.23-0.229
	c0.126,0,0.23,0.104,0.23,0.229S7.096,306.996,6.969,306.996z"/>
<path fill="#444444" d="M6.201,277.3c0.576,0.151,1.932,0.149,3.914,0.202c-0.094,0.434-0.115,0.822-0.115,1.516
	c0,1.654,1.205,3.111,2.271,3.111c0.753,0,1.373-0.615,1.383-1.372c0.012-0.93,0.299-2.532,1.846-3.347
	c0.113-0.061,0.438-0.221,0.484-0.24l-0.023-0.021c0.242,0.209,0.578,0.369,0.922,0.369h1.384c0.764,0,1.384-0.619,1.384-1.383
	v-7.378c0-0.764-0.62-1.384-1.384-1.384h-1.384c-0.549,0-1.008,0.331-1.229,0.796c-0.006-0.002-0.016-0.004-0.021-0.005
	c-0.03-0.01-0.066-0.018-0.11-0.029c-0.009-0.002-0.013-0.003-0.021-0.005c-0.268-0.065-0.777-0.188-1.871-0.438
	c-0.234-0.055-1.471-0.317-2.754-0.317H8.355c-0.77,0-1.32,0.296-1.65,0.89c-0.006,0.01-0.111,0.217-0.197,0.495
	c-0.064,0.212-0.09,0.509-0.012,0.812c-0.494,0.342-0.654,0.855-0.759,1.191c-0.174,0.549-0.12,0.961,0,1.256
	c-0.278,0.264-0.517,0.664-0.616,1.275c-0.062,0.38,0.004,0.77,0.18,1.094c-0.262,0.295-0.381,0.662-0.395,1.004l-0.005,0.098
	c-0.004,0.06-0.007,0.098-0.007,0.229C4.893,276.299,5.296,277.042,6.201,277.3z M16.421,268.757c0-0.255,0.205-0.462,0.461-0.462
	h1.383c0.256,0,0.461,0.207,0.461,0.462v7.378c0,0.256-0.205,0.461-0.461,0.461h-1.383c-0.256,0-0.461-0.205-0.461-0.461V268.757z
	 M5.826,275.428c0.01-0.229,0.105-0.677,0.912-0.677c0.691,0,0.922,0,0.922,0c0.129,0,0.23-0.104,0.23-0.229
	c0-0.127-0.104-0.23-0.23-0.23c0,0-0.201,0-0.894,0c-0.691,0-0.782-0.574-0.737-0.852c0.057-0.344,0.219-0.994,0.997-0.994
	s1.095,0,1.095,0c0.129,0,0.23-0.103,0.23-0.229s-0.104-0.229-0.23-0.229c0,0-0.547,0-0.908,0c-0.776,0-0.709-0.594-0.598-0.947
	c0.146-0.466,0.237-0.896,1.219-0.896c0.33,0,0.752,0,0.752,0c0.127,0,0.23-0.104,0.23-0.23s-0.104-0.23-0.23-0.23
	c0,0-0.319,0-0.725,0c-0.504,0-0.527-0.478-0.475-0.647c0.058-0.188,0.126-0.326,0.129-0.332c0.139-0.252,0.363-0.403,0.839-0.403
	h2.521c1.269,0,2.523,0.288,2.556,0.295c1.915,0.441,2.018,0.477,2.137,0.51c0,0,0.392,0.065,0.392,0.406l0.004,6.369
	c0,0.217-0.14,0.411-0.367,0.479c-0.027,0.013-0.066,0.023-0.094,0.035c-2.107,0.873-2.748,2.785-2.769,4.355
	c-0.002,0.221-0.173,0.462-0.461,0.462c-0.487,0-1.351-0.979-1.351-2.188c0-1.094,0.045-1.283,0.429-2.422
	c-4.611,0-4.579-0.067-4.986-0.174c-0.504-0.145-0.547-0.562-0.547-0.705C5.816,275.559,5.82,275.581,5.826,275.428z
	 M17.574,270.141c0.383,0,0.691-0.311,0.691-0.691s-0.311-0.691-0.691-0.691s-0.691,0.311-0.691,0.691
	S17.192,270.141,17.574,270.141z M17.574,269.218c0.127,0,0.23,0.104,0.23,0.23s-0.104,0.229-0.23,0.229s-0.23-0.104-0.23-0.229
	S17.447,269.218,17.574,269.218z"/>
</svg>
